<svg width="701" height="165" viewBox="0 0 701 165" fill="none" xmlns="http://www.w3.org/2000/svg">
<path d="M0.350342 0H700.35V165H0.350342V0Z" fill="#06060C"/>
<path fill-rule="evenodd" clip-rule="evenodd" d="M449.119 126.878L398.216 123.852C398.96 120.205 399.931 116.713 401.13 113.376C402.329 110.116 403.775 107.032 405.47 104.122C406.917 101.677 408.736 99.0582 410.926 96.2646C413.158 93.4709 415.762 90.522 418.738 87.418C422.541 83.4991 425.373 79.716 427.233 76.0688C429.093 72.4603 430.023 69.0071 430.023 65.709C430.023 64.4674 429.754 63.3227 429.217 62.2751C428.679 61.2275 427.894 60.2769 426.861 59.4233C425.91 58.6473 424.835 58.0653 423.637 57.6772C422.479 57.2504 421.198 57.037 419.792 57.037C418.056 57.037 416.465 57.231 415.018 57.619C413.53 58.0459 412.228 58.6279 411.112 59.3651C409.789 60.2575 408.798 61.3245 408.136 62.5661C407.475 63.8078 407.144 65.224 407.144 66.8148C407.144 67.5908 407.268 68.3474 407.516 69.0846C407.723 69.7831 408.012 70.4427 408.384 71.0635C408.88 71.8007 409.459 72.3439 410.12 72.6931C410.74 73.0423 411.443 73.2169 412.228 73.2169C413.882 73.2169 415.142 72.8483 416.01 72.1111C416.837 71.4127 417.25 70.3263 417.25 68.8518C417.25 68.5026 417.188 68.1146 417.064 67.6878C416.982 67.2998 416.837 66.873 416.63 66.4074C418.449 66.8342 419.792 67.5714 420.66 68.619C421.57 69.6279 422.025 70.9083 422.025 72.4603C422.025 73.6631 421.735 74.7302 421.157 75.6614C420.578 76.5926 419.689 77.4074 418.49 78.1058C417.54 78.649 416.465 79.0758 415.266 79.3862C414.109 79.6579 412.848 79.7937 411.484 79.7937C408.012 79.7937 405.201 78.7654 403.052 76.709C400.903 74.6526 399.828 72.0141 399.828 68.7936C399.828 66.3104 400.407 64.0794 401.564 62.1005C402.721 60.0829 404.457 58.3562 406.772 56.9206C408.797 55.6402 411.03 54.6896 413.468 54.0688C415.866 53.4868 418.47 53.1958 421.28 53.1958C424.877 53.1958 428.059 53.6032 430.829 54.418C433.64 55.2328 436.058 56.455 438.083 58.0846C440.274 59.8695 441.927 62.0229 443.043 64.545C444.118 67.067 444.655 69.9383 444.655 73.1587C444.655 75.5644 443.994 78.0088 442.671 80.4921C441.307 82.9753 439.323 85.4974 436.719 88.0582C434.053 90.2116 431.449 92.3651 428.783 94.5185C426.179 96.6526 423.575 98.8254 420.97 101.037C417.87 103.637 415.349 106.139 413.406 108.545C411.464 110.912 410.12 113.162 409.376 115.296L445.895 108.836L449.119 126.878ZM440.687 69.7831C440.687 68.813 440.398 68.0564 439.819 67.5132C439.282 67.0088 438.455 66.7566 437.339 66.7566C436.306 66.7566 435.5 67.0088 434.921 67.5132C434.384 68.0564 434.115 68.813 434.115 69.7831C434.115 70.8307 434.384 71.5873 434.921 72.0529C435.5 72.5573 436.306 72.8095 437.339 72.8095C438.455 72.8095 439.282 72.5573 439.819 72.0529C440.398 71.5873 440.687 70.8307 440.687 69.7831ZM438.579 79.3862C438.579 78.2998 438.166 77.388 437.339 76.6508C436.554 75.8748 435.562 75.4868 434.363 75.4868C433.247 75.4868 432.275 75.8748 431.449 76.6508C430.581 77.388 430.147 78.2998 430.147 79.3862C430.147 80.4727 430.581 81.4039 431.449 82.1799C432.275 82.9559 433.247 83.3439 434.363 83.3439C435.562 83.3439 436.554 82.9559 437.339 82.1799C438.166 81.4039 438.579 80.4727 438.579 79.3862ZM430.767 87.3016C430.767 86.254 430.498 85.478 429.961 84.9736C429.423 84.4691 428.597 84.2169 427.481 84.2169C426.447 84.2169 425.641 84.4691 425.063 84.9736C424.525 85.478 424.257 86.254 424.257 87.3016C424.257 88.3104 424.525 89.067 425.063 89.5714C425.641 90.0758 426.447 90.328 427.481 90.328C428.597 90.328 429.423 90.0758 429.961 89.5714C430.498 89.067 430.767 88.3104 430.767 87.3016ZM510.377 90.6773C510.377 95.1393 509.798 99.388 508.641 103.423C507.525 107.439 505.789 111.28 503.557 114.947C500.87 119.254 497.729 122.474 494.133 124.609C490.578 126.704 486.589 127.751 482.166 127.751C477.785 127.751 473.796 126.704 470.2 124.609C466.645 122.474 463.504 119.254 460.776 114.947C458.502 111.3 456.787 107.459 455.629 103.423C454.472 99.388 453.893 95.1393 453.893 90.6773C453.893 86.254 454.472 82.0247 455.629 77.9894C456.787 73.9153 458.502 70.0547 460.776 66.4074C463.504 62.1005 466.645 58.8801 470.2 56.746C473.796 54.612 477.785 53.545 482.166 53.545C486.589 53.545 490.578 54.612 494.133 56.746C497.729 58.8801 500.87 62.1005 503.557 66.4074C505.789 70.0741 507.525 73.9153 508.641 77.9894C509.798 82.0247 510.377 86.254 510.377 90.6773ZM502.689 92.7143L497.791 92.3651L497.357 88L502.441 87.709C502.234 85.0705 501.8 82.5679 501.139 80.2011C500.477 77.873 499.609 75.6808 498.535 73.6243L492.148 77.6984L489.544 74.4974L495.745 69.3175C494.257 67.4938 492.644 66.1164 490.908 65.1852C489.131 64.254 487.25 63.7884 485.266 63.7884C484.729 63.7884 484.254 63.8077 483.84 63.8465C483.427 63.8465 483.096 63.9048 482.848 64.0212L483.53 72.5185L478.942 73.6243L478.198 66.1746C476.09 67.649 474.292 69.5503 472.804 71.8783C471.316 74.2452 470.117 77.0776 469.208 80.3757L475.036 82.5291L473.734 86.4286L468.34 84.6825C468.092 86.0406 467.926 87.3792 467.844 88.6984C467.72 89.9788 467.658 91.2399 467.658 92.4815L472.556 91.1429L474.416 95.3333L468.092 97.3704C468.257 99 468.547 100.61 468.96 102.201C469.332 103.831 469.849 105.46 470.51 107.09L475.036 104.704L476.958 108.196L472.556 111.28C474.292 114.19 476.214 116.363 478.322 117.799C480.43 119.273 482.704 120.011 485.142 120.011L484.274 112.561L489.296 111.979L490.784 118.556C492.272 117.78 493.678 116.713 495.001 115.355C496.282 113.996 497.46 112.347 498.535 110.407L490.474 104.529L493.823 101.27L500.581 105.402C501.242 103.501 501.759 101.483 502.131 99.3492C502.461 97.2152 502.647 95.0035 502.689 92.7143V92.7143ZM491.777 89.1058C491.777 90.6191 491.218 91.8995 490.04 93.0053C488.883 94.1305 487.498 94.6931 485.886 94.6931C484.274 94.6931 482.848 94.1305 481.608 93.0053C480.409 91.9189 479.81 90.6191 479.81 89.1058C479.81 87.5926 480.409 86.2928 481.608 85.2064C482.848 84.1199 484.274 83.5767 485.886 83.5767C487.498 83.5767 488.883 84.1199 490.04 85.2064C491.198 86.2928 491.777 87.5926 491.777 89.1058ZM565.993 126.878L515.089 123.852C515.833 120.205 516.805 116.732 518.003 113.434C519.243 110.136 520.69 107.032 522.343 104.122C523.79 101.677 525.609 99.0582 527.799 96.2646C530.032 93.5097 532.636 90.5608 535.612 87.418C539.415 83.4991 542.246 79.716 544.106 76.0688C545.966 72.4603 546.896 69.0071 546.896 65.709C546.896 64.4674 546.627 63.3227 546.09 62.2751C545.553 61.2275 544.767 60.2769 543.734 59.4233C542.783 58.6473 541.709 58.0653 540.51 57.6772C539.352 57.2504 538.092 57.037 536.728 57.037C534.95 57.037 533.338 57.231 531.892 57.619C530.404 58.0459 529.102 58.6473 527.985 59.4233C526.663 60.3157 525.671 61.3633 525.009 62.5661C524.348 63.8078 524.017 65.224 524.017 66.8148C524.017 67.5908 524.141 68.3474 524.389 69.0846C524.596 69.7831 524.885 70.4427 525.257 71.0635C525.753 71.8395 526.332 72.3827 526.994 72.6931C527.614 73.0423 528.316 73.2169 529.102 73.2169C530.755 73.2169 532.016 72.8483 532.884 72.1111C533.71 71.4127 534.124 70.3457 534.124 68.91C534.124 68.522 534.062 68.1146 533.938 67.6878C533.855 67.2998 533.71 66.873 533.504 66.4074C535.322 66.8342 536.666 67.5714 537.534 68.619C538.443 69.6279 538.898 70.9083 538.898 72.4603C538.898 73.6631 538.608 74.7302 538.03 75.6614C537.451 76.5926 536.562 77.4074 535.364 78.1058C534.413 78.649 533.338 79.0758 532.14 79.3862C530.982 79.6579 529.722 79.7937 528.358 79.7937C524.885 79.7937 522.075 78.7654 519.925 76.709C517.776 74.6526 516.701 72.0141 516.701 68.7936C516.701 66.3104 517.28 64.0794 518.437 62.1005C519.595 60.0829 521.331 58.3562 523.645 56.9206C525.671 55.6402 527.903 54.6896 530.342 54.0688C532.739 53.4868 535.343 53.1958 538.154 53.1958C541.75 53.1958 544.933 53.6032 547.702 54.418C550.513 55.2328 552.931 56.455 554.956 58.0846C557.147 59.8695 558.8 62.0229 559.916 64.545C560.991 67.067 561.528 69.9383 561.528 73.1587C561.528 75.5644 560.867 78.0088 559.544 80.4921C558.222 82.9753 556.238 85.4974 553.592 88.0582C550.926 90.2116 548.322 92.3651 545.656 94.5185C543.052 96.6526 540.448 98.8254 537.844 101.037C534.744 103.637 532.222 106.139 530.28 108.545C528.337 110.912 527.014 113.182 526.311 115.355L562.83 108.894L565.993 126.878ZM557.498 69.7249C557.498 68.7548 557.209 67.9982 556.63 67.455C556.093 66.9506 555.266 66.6984 554.15 66.6984C553.117 66.6984 552.311 66.9506 551.732 67.455C551.195 67.9982 550.926 68.7548 550.926 69.7249C550.926 70.7725 551.195 71.5485 551.732 72.0529C552.311 72.5185 553.117 72.7513 554.15 72.7513C555.266 72.7513 556.093 72.5185 556.63 72.0529C557.209 71.5485 557.498 70.7725 557.498 69.7249ZM555.39 79.328C555.39 78.2416 554.977 77.3298 554.15 76.5926C553.365 75.8166 552.373 75.4286 551.174 75.4286C550.058 75.4286 549.087 75.8166 548.26 76.5926C547.392 77.3298 546.958 78.2416 546.958 79.328C546.958 80.4145 547.392 81.3457 548.26 82.1217C549.087 82.8977 550.058 83.2857 551.174 83.2857C552.373 83.2857 553.365 82.8977 554.15 82.1217C554.977 81.3457 555.39 80.4145 555.39 79.328ZM547.578 87.2434C547.578 86.1958 547.309 85.4198 546.772 84.9153C546.235 84.4109 545.408 84.1587 544.292 84.1587C543.259 84.1587 542.453 84.4109 541.874 84.9153C541.337 85.4198 541.068 86.1958 541.068 87.2434C541.068 88.2522 541.337 89.0088 541.874 89.5132C542.453 90.0176 543.259 90.2699 544.292 90.2699C545.408 90.2699 546.235 90.0176 546.772 89.5132C547.309 89.0088 547.578 88.2522 547.578 87.2434ZM618.074 126.878L567.171 123.794C567.873 120.146 568.845 116.674 570.085 113.376C571.283 110.078 572.73 106.974 574.425 104.064C575.83 101.619 577.649 99 579.881 96.2064C582.113 93.4515 584.717 90.522 587.693 87.418C591.455 83.4603 594.265 79.6579 596.125 76.0106C598.027 72.4021 598.977 68.9488 598.977 65.6508C598.977 64.4092 598.709 63.2645 598.171 62.2169C597.634 61.1693 596.828 60.2187 595.753 59.3651C594.803 58.5891 593.749 58.007 592.591 57.619C591.393 57.1922 590.111 56.9788 588.747 56.9788C586.97 56.9788 585.358 57.1728 583.911 57.5608C582.464 57.9876 581.162 58.5891 580.005 59.3651C578.724 60.2575 577.752 61.3051 577.091 62.5079C576.429 63.7496 576.099 65.1658 576.099 66.7566C576.099 67.5326 576.223 68.2892 576.471 69.0265C576.677 69.7249 576.967 70.3845 577.339 71.0053C577.794 71.7813 578.352 72.3439 579.013 72.6931C579.674 73.0035 580.398 73.1587 581.183 73.1587C582.836 73.1587 584.076 72.8095 584.903 72.1111C585.73 71.3739 586.143 70.2875 586.143 68.8518C586.143 68.4638 586.102 68.0564 586.019 67.6296C585.895 67.2416 585.751 66.8148 585.585 66.3492C587.363 66.8148 588.706 67.552 589.615 68.5608C590.483 69.5697 590.917 70.8501 590.917 72.4021C590.917 73.6049 590.628 74.672 590.049 75.6032C589.471 76.5344 588.603 77.3492 587.445 78.0476C586.453 78.5908 585.378 79.0176 584.221 79.328C583.022 79.5996 581.762 79.7355 580.439 79.7355C576.967 79.7355 574.156 78.7072 572.007 76.6508C569.816 74.5943 568.721 71.9559 568.721 68.7355C568.721 66.2522 569.299 64.0212 570.457 62.0423C571.655 60.0247 573.392 58.298 575.665 56.8624C577.732 55.582 579.964 54.6314 582.361 54.0106C584.8 53.4286 587.404 53.1376 590.173 53.1376C593.769 53.1376 596.973 53.545 599.784 54.3598C602.594 55.2134 605.012 56.4356 607.038 58.0264C609.228 59.8113 610.861 61.9647 611.936 64.4868C613.052 67.0088 613.61 69.8995 613.61 73.1587C613.61 75.5256 612.928 77.9506 611.564 80.4339C610.241 82.9171 608.257 85.4392 605.612 88C603.008 90.1534 600.404 92.3069 597.737 94.4603C595.133 96.5944 592.509 98.7672 589.863 100.979C586.763 103.617 584.262 106.12 582.361 108.487C580.418 110.854 579.075 113.123 578.331 115.296L614.85 108.836L618.074 126.878ZM609.58 69.7249C609.58 68.7548 609.311 67.9982 608.774 67.455C608.195 66.9506 607.368 66.6984 606.294 66.6984C605.219 66.6984 604.413 66.9506 603.876 67.455C603.338 67.9982 603.07 68.7548 603.07 69.7249C603.07 70.7725 603.338 71.5485 603.876 72.0529C604.413 72.5185 605.219 72.7513 606.294 72.7513C607.368 72.7513 608.195 72.5185 608.774 72.0529C609.311 71.5485 609.58 70.7725 609.58 69.7249ZM607.472 79.3862C607.472 78.2998 607.079 77.3686 606.294 76.5926C605.467 75.8166 604.475 75.4286 603.318 75.4286C602.202 75.4286 601.21 75.8166 600.341 76.5926C599.515 77.3686 599.101 78.2998 599.101 79.3862C599.101 80.4339 599.515 81.3457 600.341 82.1217C601.21 82.8977 602.202 83.2857 603.318 83.2857C604.475 83.2857 605.467 82.8977 606.294 82.1217C607.079 81.3457 607.472 80.4339 607.472 79.3862ZM599.721 87.2434C599.721 86.2346 599.453 85.4586 598.916 84.9153C598.337 84.4109 597.489 84.1587 596.373 84.1587C595.34 84.1587 594.555 84.4109 594.017 84.9153C593.439 85.4586 593.149 86.2346 593.149 87.2434C593.149 88.2522 593.439 89.0088 594.017 89.5132C594.555 90.0176 595.34 90.2699 596.373 90.2699C597.489 90.2699 598.337 90.0176 598.916 89.5132C599.453 89.0088 599.721 88.2522 599.721 87.2434ZM302.175 65.4762C305.027 63.963 308.189 63.9047 311.413 64.1376C314.7 64.4286 317.676 65.1852 319.846 67.3968C319.908 67.3968 319.97 67.3968 319.97 67.3968C321.892 65.0688 324.806 64.7778 327.844 64.8942C330.2 65.0106 332.494 65.5926 334.54 66.7566C334.912 65.8254 335.284 64.8942 335.718 64.0212C337.206 60.9365 338.694 57.8519 340.12 54.7672C340.74 53.3704 341.236 51.9153 342.352 50.7513C343.034 50.0529 343.778 49.3545 344.646 48.8889C347.064 47.4921 349.979 47.8995 351.963 49.8201C354.009 51.7989 354.381 54.127 353.823 56.5714C352.645 61.6931 351.343 66.8148 350.227 71.9365C349.234 76.2434 348.552 80.6085 348.8 85.0318C348.924 86.836 349.172 88.582 349.42 90.3862L347.374 90.9101C347.333 90.8325 347.312 90.7549 347.312 90.6773C346.568 86.0212 346.568 81.4233 347.25 76.7672C348.118 71.0635 349.544 65.4762 350.909 59.8889C351.343 58.2593 351.777 56.5714 351.963 54.8836C352.045 54.1852 351.983 53.5062 351.777 52.8465L349.048 56.9788L344.212 54.127L347.064 49.7619C346.775 49.8395 346.465 49.9365 346.134 50.0529C344.832 50.6349 343.964 51.6243 343.344 52.672C342.414 54.418 341.608 56.2222 340.802 57.9683C339.273 61.1887 337.785 64.4092 336.338 67.6296C336.214 67.8624 336.09 68.1534 336.214 68.328C337.454 70.4233 337.64 72.5767 337.454 74.8466C337.392 75.836 337.206 76.8836 336.524 77.7566C335.966 78.5714 334.912 78.8042 334.044 78.2804C333.486 77.9312 332.928 77.4074 332.742 76.8836C332.432 76.0106 332.246 75.0212 332.37 74.0899C332.618 72.5185 333.114 71.0053 333.548 69.4339C333.796 68.3862 333.858 68.328 332.742 67.746C332.659 67.7072 332.577 67.6878 332.494 67.6878C330.2 66.6984 327.782 66.4074 325.24 66.6402C323.318 66.8148 321.954 67.6878 321.024 69.0846C320.9 69.201 320.962 69.4339 320.962 69.6085C321.148 70.4815 321.458 71.2963 321.582 72.1111C321.768 73.2169 321.83 74.3228 321.148 75.3122C320.776 75.9524 320.094 76.418 319.164 76.418C318.234 76.418 317.552 75.9524 317.242 75.254C317.056 74.672 316.932 74.0317 316.932 73.4497C316.994 72.0529 317.552 70.7725 318.296 69.4921C318.42 69.3175 318.42 69.0264 318.358 68.7936C317.862 67.8624 316.932 67.2804 315.878 66.873C313.397 65.8254 310.731 65.5926 308.003 65.7672C306.763 65.8836 305.523 66.1164 304.345 66.4074C303.229 66.6984 302.795 67.5714 302.981 68.5026C303.229 69.8995 303.539 71.3545 303.725 72.7513C303.849 73.5079 303.787 74.3228 303.601 75.0794C303.353 76.3016 302.299 76.7672 300.873 76.418C299.819 76.127 299.013 75.545 298.765 74.672C298.579 73.9735 298.517 73.2169 298.579 72.5185C298.703 70.8889 299.447 69.3757 300.315 67.9206C300.439 67.6296 300.501 67.2222 300.439 66.873C298.145 59.0159 295.107 51.2751 291.573 43.709C291.077 42.6032 290.457 41.4391 289.651 40.4497C288.845 39.4021 287.729 38.7619 286.551 38.5291L288.783 44.291L282.273 46.5026L280.165 41.0317C280.041 41.2257 279.917 41.4197 279.793 41.6137C278.677 43.5926 278.738 45.6878 279.358 47.7249C280.888 53.0018 282.397 58.298 283.885 63.6137C284.195 64.545 284.257 65.5344 284.505 66.4656C284.753 67.3968 285.125 68.2116 285.373 69.0846C286.241 72.4603 287.047 75.836 287.853 79.1534C288.039 79.9101 288.225 80.6085 288.411 81.4233C288.452 81.3845 288.493 81.3457 288.535 81.3069C288.576 81.5397 288.617 81.7531 288.659 81.9471C288.659 82.4127 288.721 82.8783 288.845 83.3439C288.845 83.4603 288.865 83.5767 288.907 83.6931C289.527 86.7196 290.147 89.6878 290.767 92.7143C290.023 92.8307 289.32 93.0247 288.659 93.2963C288.287 91.1235 287.894 88.9506 287.481 86.7778C287.295 85.9048 287.109 85.0318 286.861 84.1587C286.819 83.7319 286.737 83.3245 286.613 82.9365L276.692 89.2804L281.033 94.9259C281.219 95.1005 281.281 95.2169 281.343 95.3333C281.529 95.5079 281.529 95.5661 281.839 95.5661C282.521 95.6243 283.761 95.2169 284.815 94.8677C285.311 94.6931 285.807 94.5185 286.303 94.4021L286.799 96.1482C286.427 96.2646 285.931 96.381 285.435 96.5556C284.195 96.963 282.831 97.4286 281.653 97.3122C280.475 97.254 280.413 97.1376 279.793 96.3228C279.731 96.2064 279.607 96.09 279.545 95.9736L273.964 88.873L286.179 81.0159C285.269 77.3298 284.381 73.6437 283.513 69.9577C283.265 68.91 283.079 67.8624 282.831 66.873C282.459 65.5344 282.025 64.254 281.653 62.9153C280.289 58.3175 279.049 53.6614 277.622 49.0635C277.064 47.1428 276.63 45.2222 277.064 43.2434C277.436 41.3227 278.49 39.6349 280.289 38.2963C283.699 35.8518 288.473 36.2592 291.263 39.2857C292.503 40.6825 293.123 42.2539 293.867 43.8254C297.029 50.8677 299.819 57.9683 302.051 65.2434C302.093 65.321 302.134 65.3986 302.175 65.4762V65.4762Z" fill="white"/>
<path fill-rule="evenodd" clip-rule="evenodd" d="M172.281 73.3334C172.24 69.5309 172.219 65.7478 172.219 61.9842C172.467 61.9842 172.715 61.9842 172.963 61.9842C184.454 61.9454 195.945 61.9065 207.436 61.8677C207.684 61.8677 207.87 61.9259 208.118 61.9259C208.056 62.0424 208.056 62.1005 208.056 62.1587C206.816 65.7284 205.597 69.2787 204.398 72.8096C204.274 73.1588 204.088 73.217 203.716 73.217C199.335 73.217 194.933 73.217 190.51 73.217C190.345 73.217 190.159 73.217 189.952 73.217C190.076 73.4498 190.2 73.508 190.324 73.6244C193.879 76.0688 197.454 78.5327 201.05 81.0159C201.36 81.1905 201.422 81.3651 201.298 81.7143C200.058 85.478 198.818 89.2611 197.578 93.0635C197.578 93.1799 197.516 93.3545 197.454 93.5873C197.702 93.4709 197.826 93.3545 197.95 93.2963C201.422 91.0847 204.874 88.8731 208.304 86.6614C208.614 86.4286 208.862 86.4286 209.172 86.6614C212.479 88.8731 215.786 91.0653 219.093 93.2381C219.217 93.2963 219.403 93.4127 219.589 93.5291C219.589 93.3545 219.589 93.2381 219.527 93.1799C218.535 89.3387 217.543 85.5168 216.551 81.7143C216.489 81.3651 216.551 81.1905 216.861 80.9577C220.374 78.5133 223.887 76.0494 227.401 73.5662C227.525 73.4498 227.649 73.3528 227.773 73.2752C227.773 73.2364 227.773 73.1976 227.773 73.1588C227.566 73.1588 227.38 73.1588 227.215 73.1588C222.751 73.1588 218.287 73.1782 213.823 73.217C213.389 73.217 213.203 73.0424 213.079 72.6932C211.921 69.3951 210.743 66.0776 209.544 62.7408C209.42 62.508 209.358 62.217 209.234 61.9259C209.544 61.9259 209.73 61.8677 209.916 61.8677C215.703 61.8677 221.49 61.8677 227.277 61.8677C233.022 61.8677 238.768 61.8483 244.513 61.8095C244.947 61.8095 245.133 61.8678 245.133 62.3334C245.133 65.7866 245.133 69.2205 245.133 72.6349C245.133 73.0424 245.009 73.1006 244.637 73.1006C242.736 73.1006 240.835 73.12 238.933 73.1588C238.375 73.1588 238.375 73.1588 238.375 73.6826C238.375 80.0847 238.375 86.5062 238.375 92.9471C238.375 93.1217 238.437 93.2381 238.437 93.471C238.623 93.3545 238.747 93.2963 238.871 93.2381C239.677 92.7725 240.359 92.3069 241.165 91.8995C245.443 89.5715 249.97 88.4074 254.93 88.8731C258.071 89.1447 260.985 90.0759 263.672 91.6667C264.788 92.3069 265.78 93.1217 266.834 93.8201C266.834 99.0582 266.834 104.296 266.834 109.534C266.71 109.496 266.607 109.476 266.524 109.476C263.217 109.437 259.91 109.418 256.604 109.418C253.793 109.418 251.003 109.399 248.234 109.36C247.799 109.36 247.613 109.476 247.613 109.942C247.675 110.407 247.675 110.873 247.737 111.339C247.985 113.259 248.915 114.773 250.838 115.646C252.14 116.228 253.504 116.46 254.93 116.46C257.658 116.577 260.262 116.053 262.866 115.355C264.23 115.005 265.532 114.598 266.896 114.191C266.896 116.131 266.896 118.051 266.896 119.952V125.016L212.024 125.132V124.783C212.024 124.744 212.024 124.686 212.024 124.609C212.024 123.639 212.024 122.669 212.024 121.698V119.196C212.024 117.566 212.024 115.917 212.024 114.249C212.024 113.9 212.148 113.783 212.521 113.783C214.711 113.783 216.902 113.783 219.093 113.783C219.258 113.783 219.423 113.783 219.589 113.783C219.589 109.243 219.589 104.82 219.589 100.339C219.465 100.339 219.465 100.339 219.403 100.339C217.109 100.804 214.753 101.386 212.459 101.794C209.916 102.318 207.374 102.492 204.832 102.55C202.352 102.667 199.893 102.531 197.454 102.143C194.602 101.736 191.874 101.037 189.332 99.7567C184.868 97.6032 181.768 94.2858 179.846 89.9789C179.35 88.8731 179.04 87.709 179.102 86.4868C179.164 84.2752 179.102 82.0635 179.102 79.7937C179.102 77.8149 179.102 75.836 179.102 73.8572C179.102 73.2752 179.102 73.2752 178.42 73.2752C176.559 73.2752 174.679 73.2752 172.777 73.2752C172.612 73.2752 172.447 73.2946 172.281 73.3334V73.3334ZM257.534 103.714C257.472 103.016 257.41 102.318 257.224 101.619C256.356 98.4762 253.008 97.1958 250.218 98.9419C248.481 99.9313 247.924 101.561 247.8 103.365C247.8 103.714 248.047 103.656 248.234 103.656C251.168 103.695 254.103 103.734 257.038 103.773C257.162 103.773 257.286 103.714 257.534 103.714V103.714Z" fill="#FF2E17"/>
<path fill-rule="evenodd" clip-rule="evenodd" d="M82.5648 58.6084L84.6108 58.4338L95.0891 80.201L94.3451 83.0529L94.9031 84.8571L95.0891 81.0159L100.111 96.672L89.943 99.9894L82.5648 58.6084ZM113.752 95.6243L108.543 90.9101L108.358 70.4815L113.132 67.0476L121.316 66.8148L125.47 70.5979L126.338 90.3862L121.006 95.3915L113.752 95.6243ZM115.736 72.6931L115.984 88.291L118.712 88.5238L118.588 72.2857L115.736 72.6931ZM137.808 95.3915L129.5 94.1693L131.918 59.3069L140.846 59.1904L139.296 70.8889L140.66 71.5873L144.567 59.5397L153.185 59.5979L147.171 74.6137L152.503 80.0847L152.379 95.1587L142.272 95.9153L143.512 81.0741L141.156 79.7354L140.164 79.328L137.808 95.3915Z" fill="white"/>
<path fill-rule="evenodd" clip-rule="evenodd" d="M98.2512 92.1323L82.5648 58.6085L96.7012 57.2698L104.327 60.9947L106.559 74.1482L101.413 79.1535L95.0891 81.0159L98.2512 92.1323ZM94.3452 73.1587L97.1972 72.2275L95.5852 64.3122L92.9811 64.4286L94.3452 73.1587ZM168.747 90.2117L156.471 92.0159L155.727 87.127L166.143 83.5767L168.747 90.2117ZM207.684 126.413V127.344H200.926L193.982 112.503L187.1 127.344L180.404 127.402V126.471L191.626 103.482C193.321 103.714 195.015 103.967 196.71 104.238L207.684 126.413Z" fill="white"/>
<path fill-rule="evenodd" clip-rule="evenodd" d="M87.6489 113.783C87.6489 96.2645 115.302 96.2063 115.364 113.725C115.364 131.302 87.7109 131.36 87.6489 113.783ZM108.296 113.725C108.296 104.645 94.7171 104.645 94.7791 113.783C94.7791 122.979 108.296 122.921 108.296 113.725ZM143.885 126.471C141.528 126.471 139.172 126.471 136.816 126.471V107.148H128.446L128.508 126.529C126.152 126.529 123.796 126.529 121.44 126.529L121.378 101.212C123.734 101.212 126.09 101.212 143.823 101.153L143.885 126.471ZM150.209 113.667C150.147 96.1481 177.862 96.0899 177.862 113.608C177.924 131.127 150.209 131.185 150.209 113.667ZM170.793 113.608C170.793 104.471 157.277 104.529 157.277 113.608C157.277 122.804 170.855 122.804 170.793 113.608ZM357.171 106.101C352.706 106.101 350.474 106.101 346.01 106.159V110.116H356.303C356.303 112.25 356.303 114.404 356.303 116.577H346.01C346.01 118.265 346.01 119.836 346.01 121.582C350.474 121.524 353.079 121.524 357.605 121.524C357.605 123.619 357.605 125.831 357.605 127.984C350.536 127.984 345.328 127.984 338.384 127.984C338.384 118.556 338.322 109.069 338.322 99.6402C345.328 99.6402 350.102 99.6402 357.171 99.6402C357.171 101.735 357.171 103.947 357.171 106.101V106.101ZM306.577 128.159H303.787V99.8148C306.391 99.8148 309.016 99.8148 311.661 99.8148V113.667L326.914 99.6402H329.704L329.766 128.101C327.162 128.101 324.496 128.101 321.768 128.101V114.19L306.577 128.159ZM295.913 128.159C293.267 128.159 290.622 128.159 287.977 128.159V116.81H278.676V128.217C276.072 128.217 273.406 128.217 270.802 128.217L270.74 99.873C273.344 99.873 276.01 99.873 278.614 99.873L278.676 110.175L287.977 110.116V99.873C290.581 99.8342 293.206 99.8148 295.851 99.8148L295.913 128.159Z" fill="white"/>
<path d="M312.839 89.9789C314.018 89.7461 315.196 89.5714 316.312 89.8042C316.684 89.8819 316.973 90.0177 317.18 90.2117C317.924 90.2117 318.73 90.2117 319.412 90.2699V89.746C322.264 89.5132 325.116 89.5132 327.968 89.746C327.906 89.6296 330.076 89.9207 330.324 89.9789C331.006 90.0953 331.688 90.2117 332.37 90.3281C333.424 90.5609 334.416 90.8519 335.222 91.3757C335.511 91.5697 335.697 91.7831 335.78 92.0159C336.772 92.4233 337.888 93.0053 338.632 93.2381C339.5 93.5873 340.389 93.9365 341.298 94.2857C341.216 94.7513 341.236 95.2169 341.36 95.6825C339.748 94.9259 337.454 93.7619 335.718 92.7725C335.718 92.7725 335.718 92.7919 335.718 92.8307C335.656 92.9471 335.408 92.9471 335.036 92.9471C334.416 92.4233 329.58 91.0265 328.774 91.0847C328.733 91.0459 328.671 91.0265 328.588 91.0265C327.183 90.8713 325.756 90.7937 324.31 90.7937C324.475 91.0265 324.64 91.2399 324.806 91.4339C322.76 91.3757 319.784 91.2011 317.49 90.9101C317.49 90.9489 317.49 90.9877 317.49 91.0265C317.49 91.1429 317.242 91.2593 316.87 91.4339C315.94 91.1429 310.235 91.7831 309.429 92.1323C309.347 92.1323 309.285 92.1517 309.243 92.1905C305.957 93.1217 302.795 94.3439 299.695 95.8571L299.075 94.6931C301.927 93.2963 304.841 92.1323 307.941 91.1429C307.817 91.0847 310.235 90.5027 310.483 90.4445C311.29 90.3281 312.033 90.0953 312.839 89.9789V89.9789Z" fill="#FF2E17"/>
</svg>
