<svg width="32" height="32" viewBox="0 0 32 32" fill="none" xmlns="http://www.w3.org/2000/svg">
<path fill-rule="evenodd" clip-rule="evenodd" d="M1.02577 9.61882C1.02577 8.42863 1.01718 7.23844 1 6.04825C1.08591 6.04825 1.16323 6.04825 1.23196 6.04825C4.87457 6.03217 8.51718 6.02413 12.1598 6.02413C12.2285 6.02413 12.3058 6.02413 12.3918 6.02413C12.366 6.07239 12.366 6.0965 12.366 6.12063C11.9708 7.2304 11.5842 8.34822 11.2062 9.47407C11.1546 9.5947 11.1031 9.5947 11 9.5947C9.59106 9.5947 8.19072 9.5947 6.79897 9.5947C6.74742 9.5947 6.69587 9.5947 6.64432 9.5947C6.6701 9.66707 6.69587 9.6912 6.74742 9.71532C7.88144 10.5034 9.01547 11.2835 10.1495 12.0555C10.2268 12.1279 10.2784 12.1761 10.2268 12.2968C9.83161 13.4869 9.43643 14.6771 9.04124 15.8673C9.04124 15.9156 9.01546 15.9638 9.01546 16.0362C9.09278 15.9879 9.11856 15.9638 9.17011 15.9397C10.2526 15.2481 11.3436 14.5484 12.4433 13.8408C12.5464 13.7925 12.6237 13.7684 12.7268 13.8408C13.7749 14.5324 14.823 15.224 15.8711 15.9156C15.8969 15.9638 15.9485 15.9879 16.0258 16.0121C16 15.9638 16 15.9397 16 15.9156C15.6907 14.7093 15.3729 13.503 15.0464 12.2968C15.0206 12.1761 15.0464 12.1037 15.1495 12.0555C16.2663 11.2674 17.3832 10.4873 18.5 9.71532C18.5344 9.68316 18.5773 9.65098 18.6289 9.61882C18.6117 9.60273 18.6031 9.58665 18.6031 9.57056C18.5515 9.57056 18.5 9.57056 18.4485 9.57056C17.0223 9.57056 15.5962 9.57861 14.1701 9.5947C14.0412 9.5947 13.9897 9.54644 13.9639 9.42582C13.5859 8.38038 13.2079 7.33494 12.8299 6.28951C12.8041 6.21713 12.7784 6.12064 12.7268 6.02413C12.8299 6.02413 12.9072 6.02413 12.9588 6.02413C14.7972 6.02413 16.6272 6.01608 18.4485 6C20.2698 6 22.0911 6 23.9124 6C24.0412 6 24.1186 6.02413 24.1186 6.16888C24.1014 7.24648 24.1014 8.33213 24.1186 9.42582C24.1186 9.54644 24.067 9.57056 23.9639 9.57056C23.3625 9.57056 22.7612 9.57056 22.1598 9.57056C21.9536 9.57056 21.9536 9.57057 21.9536 9.73944C21.9708 11.766 21.9794 13.7925 21.9794 15.8191C21.9794 15.8914 21.9794 15.9397 22.0052 16.0121C22.0567 15.9638 22.1083 15.9397 22.134 15.9156C22.366 15.7949 22.5979 15.6261 22.8557 15.5054C24.1959 14.7817 25.6392 14.3957 27.2114 14.5404C28.2079 14.6369 29.1357 14.9345 29.9949 15.4331C30.3299 15.6261 30.665 15.8914 30.9742 16.1086C30.9914 17.7652 31 19.4218 31 21.0784C30.9656 21.0623 30.9227 21.0543 30.8711 21.0543C29.823 21.0543 28.7749 21.0462 27.7268 21.0301C26.8505 21.0301 25.9742 21.0301 25.0979 21.0301C24.9433 21.0301 24.8918 21.0543 24.9175 21.199C24.9175 21.3438 24.9175 21.4885 24.9433 21.6574C25.0206 22.2606 25.3041 22.7189 25.9227 23.0084C26.3351 23.2014 26.7732 23.2738 27.2114 23.2738C28.0876 23.298 28.9124 23.1291 29.7371 22.9119C30.1753 22.8154 30.5876 22.6707 31 22.5501C31 23.0647 31 23.5794 31 24.0941V25.9759L13.6289 26V25.9035C13.6289 25.8874 13.6289 25.8713 13.6289 25.8552C13.6289 25.5336 13.6289 25.2119 13.6289 24.8902V24.1423C13.6289 23.6116 13.6289 23.0889 13.6289 22.5742C13.6289 22.4536 13.6546 22.4294 13.7835 22.4294C14.4708 22.4294 15.1581 22.4294 15.8454 22.4294C15.9141 22.4294 15.9742 22.4294 16.0258 22.4294C16.0258 20.9819 16.0258 19.5826 16 18.1592C15.9828 18.1592 15.9656 18.1592 15.9485 18.1592C15.2268 18.3281 14.4794 18.497 13.7577 18.6417C12.9588 18.7865 12.1598 18.8589 11.335 18.883C10.5619 18.8991 9.78866 18.8508 9.01546 18.7382C8.1134 18.6176 7.23711 18.3764 6.43814 17.9903C5.02061 17.3148 4.04123 16.2533 3.42267 14.9023C3.26803 14.5404 3.16495 14.1785 3.19072 13.7925C3.19072 13.0929 3.19072 12.3933 3.19072 11.6936C3.19072 11.0664 3.19072 10.4391 3.19072 9.81182C3.19072 9.61881 3.19073 9.61882 2.98454 9.61882C2.38317 9.61882 1.78178 9.61882 1.18041 9.61882C1.12886 9.61882 1.07731 9.61882 1.02577 9.61882ZM28.0361 19.2449C28.0103 19.0036 28.0103 18.7865 27.9588 18.5694C27.6753 17.5802 26.5928 17.1701 25.7165 17.725C25.1753 18.0386 24.9949 18.5452 24.9691 19.1242C24.9433 19.2208 25.0206 19.2207 25.0979 19.2207C26.0258 19.2368 26.9536 19.2449 27.8814 19.2449C27.933 19.2449 27.9588 19.2449 28.0361 19.2449Z" fill="#FF2E17"/>
</svg>
